<svg xmlns="http://www.w3.org/2000/svg" version="1.0" preserveAspectRatio="xMidYMid meet" viewBox="91.55 46.58 716.45 717.78">
<metadata>
Created by potrace 1.10, written by Peter Selinger 2001-2011
</metadata>
<g transform="translate(0.000000,822.000000) scale(0.100000,-0.100000)" fill="#a31621" stroke="none">
<path d="M4320 7750 c-131 -7 -338 -28 -350 -35 -3 -2 -44 -9 -90 -14 -46 -6 -97 -15 -114 -20 -17 -6 -65 -17 -106 -26 -150 -32 -406 -116 -565 -184 -123 -53 -425 -210 -456 -237 -8 -8 -19 -14 -22 -14 -9 0 -216 -141 -292 -198 -155 -118 -394 -341 -515 -482 -30 -36 -72 -83 -92 -105 -21 -22 -38 -43 -38 -47 0 -4 -19 -31 -43 -60 -41 -51 -207 -294 -207 -303 0 -3 -17 -33 -38 -67 -62 -101 -167 -317 -217 -445 -25 -65 -50 -127 -55 -138 -4 -11 -25 -74 -45 -140 -20 -66 -40 -134 -45 -151 -6 -16 -14 -52 -20 -80 -35 -167 -42 -205 -51 -264 -5 -36 -14 -94 -20 -130 -20 -123 -30 -444 -19 -649 5 -108 12 -205 15 -216 3 -11 12 -67 19 -125 15 -108 60 -335 76 -380 4 -14 16 -52 25 -85 32 -110 58 -190 67 -199 4 -6 8 -17 8 -25 0 -9 7 -29 15 -45 8 -15 15 -33 15 -38 0 -5 8 -28 19 -51 10 -23 29 -67 42 -97 26 -60 106 -220 158 -315 59 -108 222 -345 325 -474 155 -193 416 -449 611 -599 111 -85 323 -227 365 -246 8 -3 29 -15 45 -26 51 -34 346 -176 435 -210 47 -18 94 -37 105 -41 135 -57 397 -124 695 -178 248 -46 854 -46 1070 -1 25 5 88 17 140 26 52 9 138 28 190 42 52 13 113 28 135 33 22 5 49 13 60 18 11 5 45 17 75 26 104 32 375 143 452 185 10 5 59 32 110 58 110 58 187 105 322 196 89 61 213 151 226 166 3 3 43 37 90 76 416 347 799 882 994 1389 15 39 32 79 37 90 25 56 96 295 123 415 10 41 21 91 27 110 12 44 27 149 59 410 5 47 10 189 10 315 0 127 -5 268 -10 315 -29 235 -49 364 -75 475 -9 39 -21 90 -26 115 -5 25 -13 54 -17 65 -15 34 -42 122 -42 135 0 7 -6 26 -14 43 -7 18 -28 73 -46 122 -57 158 -179 411 -285 590 -16 28 -32 52 -35 55 -3 3 -17 23 -30 45 -51 85 -225 316 -305 405 -54 61 -279 286 -335 335 -138 122 -360 285 -516 377 -161 95 -393 212 -506 254 -104 39 -296 105 -328 114 -19 5 -62 16 -95 25 -33 9 -87 22 -120 29 -33 7 -69 16 -80 19 -12 4 -52 11 -90 17 -39 5 -99 13 -135 19 -209 31 -455 42 -670 31z m-1070 -1880 c85 -16 155 -37 215 -65 275 -127 474 -379 546 -695 13 -54 17 -425 6 -437 -10 -10 -473 -17 -533 -8 l-42 6 -5 167 c-5 185 -15 224 -72 302 -47 63 -72 85 -140 119 -51 26 -71 31 -135 31 -151 0 -243 -59 -313 -200 l-32 -65 0 -865 0 -865 34 -70 c40 -81 93 -135 170 -172 47 -23 69 -28 136 -27 124 0 210 49 282 161 56 88 66 132 72 308 l6 160 270 3 c149 1 280 0 293 -3 22 -5 22 -8 22 -164 0 -88 -5 -195 -11 -238 -48 -354 -328 -688 -659 -786 -84 -25 -257 -49 -309 -42 -211 27 -261 40 -376 97 -196 98 -371 286 -454 488 -12 30 -26 64 -31 75 -5 11 -17 54 -27 95 -17 70 -18 137 -18 970 0 832 1 900 18 970 57 234 173 422 347 561 51 41 195 129 211 129 6 0 20 6 32 12 23 13 92 33 162 47 54 11 279 12 335 1z m2725 -54 c77 -14 128 -28 170 -46 11 -5 36 -16 55 -24 92 -40 232 -138 297 -209 147 -159 224 -322 259 -545 17 -108 17 -118 0 -225 -18 -113 -24 -135 -58 -217 -39 -94 -112 -207 -188 -293 -43 -47 -49 -59 -41 -76 6 -11 14 -21 19 -23 9 -4 91 -113 110 -146 97 -172 142 -336 142 -515 0 -141 -27 -281 -76 -394 -8 -17 -14 -33 -14 -36 0 -18 -108 -183 -157 -239 -120 -140 -284 -252 -438 -301 -154 -49 -165 -50 -670 -54 -322 -3 -489 -1 -507 6 l-28 11 0 1654 c0 1491 2 1656 16 1670 14 14 75 16 522 16 397 0 524 -3 587 -14z"/>
<path d="M5455 5228 c-3 -7 -4 -173 -3 -368 l3 -355 163 -3 c190 -3 309 13 369 51 56 35 116 105 149 172 25 53 29 71 29 150 0 79 -4 97 -29 148 -33 68 -112 151 -176 187 -44 24 -52 25 -273 28 -181 3 -228 1 -232 -10z"/>
<path d="M5456 3901 c-4 -6 -9 -650 -6 -809 0 -11 39 -13 198 -10 118 2 205 7 217 14 11 6 38 20 60 30 49 24 145 118 166 164 9 19 23 48 30 64 9 19 14 68 14 145 0 108 -2 120 -28 171 -16 30 -54 81 -85 113 -103 106 -169 127 -399 127 -89 0 -164 -4 -167 -9z"/>
</g>
</svg>